<mxfile host="app.diagrams.net" agent="Mozilla/5.0 (Windows NT 10.0; Win64; x64) AppleWebKit/537.36 (KHTML, like Gecko) Chrome/127.0.0.0 Safari/537.36" version="24.7.7">
  <diagram name="PÃ¡gina-1" id="Pz7LjajtWcB5uDyHiZPh">
    <mxGraphModel dx="936" dy="418" grid="1" gridSize="10" guides="1" tooltips="1" connect="1" arrows="1" fold="1" page="1" pageScale="1" pageWidth="827" pageHeight="1169" math="0" shadow="0">
      <root>
        <mxCell id="0" />
        <mxCell id="1" parent="0" />
        <mxCell id="C_syPbEpF1C3oZteyf8w-1" value="ACADEMIA" style="rounded=0;whiteSpace=wrap;html=1;" vertex="1" parent="1">
          <mxGeometry x="20" y="110" width="80" height="50" as="geometry" />
        </mxCell>
        <mxCell id="C_syPbEpF1C3oZteyf8w-2" value="Curso A" style="rounded=0;whiteSpace=wrap;html=1;" vertex="1" parent="1">
          <mxGeometry x="260" y="20" width="80" height="40" as="geometry" />
        </mxCell>
        <mxCell id="C_syPbEpF1C3oZteyf8w-5" value="Curso B" style="rounded=0;whiteSpace=wrap;html=1;" vertex="1" parent="1">
          <mxGeometry x="260" y="115" width="80" height="40" as="geometry" />
        </mxCell>
        <mxCell id="C_syPbEpF1C3oZteyf8w-6" value="Curso C" style="rounded=0;whiteSpace=wrap;html=1;" vertex="1" parent="1">
          <mxGeometry x="260" y="200" width="80" height="40" as="geometry" />
        </mxCell>
        <mxCell id="C_syPbEpF1C3oZteyf8w-7" value="DICTA" style="rhombus;whiteSpace=wrap;html=1;" vertex="1" parent="1">
          <mxGeometry x="140" y="110" width="60" height="50" as="geometry" />
        </mxCell>
        <mxCell id="C_syPbEpF1C3oZteyf8w-8" value="&lt;u&gt;Codigo&lt;/u&gt;" style="ellipse;whiteSpace=wrap;html=1;" vertex="1" parent="1">
          <mxGeometry x="40" y="290" width="60" height="40" as="geometry" />
        </mxCell>
        <mxCell id="C_syPbEpF1C3oZteyf8w-10" value="Nombre" style="ellipse;whiteSpace=wrap;html=1;" vertex="1" parent="1">
          <mxGeometry x="110" y="290" width="60" height="40" as="geometry" />
        </mxCell>
        <mxCell id="C_syPbEpF1C3oZteyf8w-11" value="Cuota" style="ellipse;whiteSpace=wrap;html=1;" vertex="1" parent="1">
          <mxGeometry x="180" y="290" width="60" height="40" as="geometry" />
        </mxCell>
        <mxCell id="C_syPbEpF1C3oZteyf8w-12" value="&lt;u&gt;Codigo&lt;/u&gt;" style="ellipse;whiteSpace=wrap;html=1;" vertex="1" parent="1">
          <mxGeometry x="250" y="290" width="60" height="40" as="geometry" />
        </mxCell>
        <mxCell id="C_syPbEpF1C3oZteyf8w-13" value="Nombre" style="ellipse;whiteSpace=wrap;html=1;" vertex="1" parent="1">
          <mxGeometry x="320" y="290" width="60" height="40" as="geometry" />
        </mxCell>
        <mxCell id="C_syPbEpF1C3oZteyf8w-14" value="Cuota" style="ellipse;whiteSpace=wrap;html=1;" vertex="1" parent="1">
          <mxGeometry x="390" y="290" width="60" height="40" as="geometry" />
        </mxCell>
        <mxCell id="C_syPbEpF1C3oZteyf8w-15" value="&lt;u&gt;Codigo&lt;/u&gt;" style="ellipse;whiteSpace=wrap;html=1;" vertex="1" parent="1">
          <mxGeometry x="470" y="290" width="60" height="40" as="geometry" />
        </mxCell>
        <mxCell id="C_syPbEpF1C3oZteyf8w-16" value="Nombre" style="ellipse;whiteSpace=wrap;html=1;" vertex="1" parent="1">
          <mxGeometry x="540" y="290" width="60" height="40" as="geometry" />
        </mxCell>
        <mxCell id="C_syPbEpF1C3oZteyf8w-17" value="Cuota" style="ellipse;whiteSpace=wrap;html=1;" vertex="1" parent="1">
          <mxGeometry x="610" y="290" width="60" height="40" as="geometry" />
        </mxCell>
      </root>
    </mxGraphModel>
  </diagram>
</mxfile>
